<!-- Created with Inkscape (http://www.inkscape.org/) -->
<svg xmlns:rdf="http://www.w3.org/1999/02/22-rdf-syntax-ns#" xmlns="http://www.w3.org/2000/svg" version="1.1" xmlns:cc="http://creativecommons.org/ns#" xmlns:dc="http://purl.org/dc/elements/1.1/" viewBox="0 0 200 220">
 <metadata>
  <rdf:RDF>
   <cc:Work rdf:about="">
    <dc:format>image/svg+xml</dc:format>
    <dc:type rdf:resource="http://purl.org/dc/dcmitype/StillImage"/>
    <dc:title/>
   </cc:Work>
  </rdf:RDF>
 </metadata>
 <g transform="translate(-292.11838,-472.09603)">
  <path fill="#595959" d="m296.13,658.73c3.6867-10.974,3.4026-23.25,8.9728-33.53,9.9077-8.4757,23.588-11.109,35.284-16.59,11.015-4.6833,18.717-14.161,28.058-21.136,4.3448-8.9847-2.9979-18.881-4.4519-28.031-5.2583-8.7416-10.227-18.077-9.5684-28.65,0.62086-10.81,0.0937-22.206,3.8649-32.502,4.164-9.6517,11.783-18.107,21.431-22.201,7.1515-4.1432,17.559-5.6901,24.962-1.5902,7.5019,5.0849,18.184,4.6665,23.501,13.229,9.1615,10.797,3.3337,26.023,7.0619,38.557,2.948,10.097-3.2911,19.968-7.7117,28.674-3.1033,10.446-9.2985,21.756-4.3885,32.609,6.2158,5.4388,10.779,12.609,17.876,17.341,10.336,5.9884,22.163,8.8042,32.467,14.922,12.466,6.2464,12.365,21.805,14.56,33.72,1.1258,12.872,2.1692,25.754,4.0706,38.543h-200c1.4697-11.096,1.0172-22.504,4.0113-33.364z"/>
 </g>
</svg>
