<!-- Created with Inkscape (http://www.inkscape.org/) -->
<svg xmlns:rdf="http://www.w3.org/1999/02/22-rdf-syntax-ns#" xmlns="http://www.w3.org/2000/svg" version="1.1" xmlns:cc="http://creativecommons.org/ns#" xmlns:dc="http://purl.org/dc/elements/1.1/" viewBox="0 0 200 220">
 <metadata>
  <rdf:RDF>
   <cc:Work rdf:about="">
    <dc:format>image/svg+xml</dc:format>
    <dc:type rdf:resource="http://purl.org/dc/dcmitype/StillImage"/>
    <dc:title/>
   </cc:Work>
  </rdf:RDF>
 </metadata>
 <g transform="translate(-220.92117,-400.81969)">
  <path fill="#595959" d="m220.92,620c2.8734-17.087,2.2406-36.415,14.212-50.235,8.9869-10.237,21.752-15.971,31.897-24.911,3.9806-3.3476,11.171-8.3276,12.735-10.885-9.3041,8.2875-0.20801-9.3895-3.1776-12.014-4.7249,5.2119-12.122,6.0069-18.746,5.7384,5.3602-5.2285,12.015-9.9782,14.562-17.261-1.9739-0.93699-19.735,3.3343-9.3249-3.16,8.3972-5.8661,14.491-15.19,14.642-25.701,4.0104-22.734,2.8533-48.119,17.424-67.384,7.9594-12.325,24.084-15.872,37.468-11.695,21.752,5.8393,33.683,28.967,35.108,50.291,2.3183,15.93,0.59492,32.654,6.0847,47.991,3.6358,6.9666,11.163,10.103,17.766,13.519-5.0775,1.9102-18.518,4.2564-6.7574,8.4214,8.7394-0.17748,2.4938,2.8864-2.213,5.0677-5.4167,3.265-13.317-4.5349-9.8322,5.5657,0.7021,3.6619,5.5617,11.569-1.916,6.4007-3.9535-1.7791-9.8101-3.5753-3.3687,0.72374,11.196,9.3809,23.828,16.894,34.846,26.444,12.088,11.783,15.32,38.082,18.592,53.902-43.548,0-155.57-0.3817-200-0.81851z"/>
 </g>
</svg>
